<?xml version="1.0" encoding="UTF-8" standalone="no"?>
<!-- Created with Inkscape (http://www.inkscape.org/) -->

<svg
   width="30.48mm"
   height="128.5mm"
   viewBox="0 0 30.48 128.5"
   version="1.1"
   id="svg5"
   inkscape:version="1.1.1 (3bf5ae0d25, 2021-09-20)"
   sodipodi:docname="GLTCH3HR.svg"
   xmlns:inkscape="http://www.inkscape.org/namespaces/inkscape"
   xmlns:sodipodi="http://sodipodi.sourceforge.net/DTD/sodipodi-0.dtd"
   xmlns="http://www.w3.org/2000/svg"
   xmlns:svg="http://www.w3.org/2000/svg">
  <sodipodi:namedview
     id="namedview7"
     pagecolor="#ffffff"
     bordercolor="#999999"
     borderopacity="1"
     inkscape:pageshadow="0"
     inkscape:pageopacity="0"
     inkscape:pagecheckerboard="0"
     inkscape:document-units="mm"
     showgrid="false"
     units="mm"
     inkscape:zoom="2.093646"
     inkscape:cx="-43.703663"
     inkscape:cy="259.11735"
     inkscape:window-width="1920"
     inkscape:window-height="1017"
     inkscape:window-x="-8"
     inkscape:window-y="-8"
     inkscape:window-maximized="1"
     inkscape:current-layer="layer1" />
  <defs
     id="defs2">
    <linearGradient
       id="linearGradient5176"
       inkscape:swatch="solid">
      <stop
         style="stop-color:#000000;stop-opacity:0;"
         offset="0"
         id="stop5174" />
    </linearGradient>
    <linearGradient
       id="linearGradient964"
       inkscape:swatch="gradient">
      <stop
         style="stop-color:#666666;stop-opacity:0;"
         offset="0"
         id="stop962" />
      <stop
         style="stop-color:#000000;stop-opacity:1;"
         offset="1"
         id="stop960" />
    </linearGradient>
  </defs>
  <g
     inkscape:label="Layer 1"
     inkscape:groupmode="layer"
     id="layer1">
    <g
       aria-label="Output"
       id="text5197"
       style="font-weight:bold;font-size:1.41111px;line-height:1.25;font-family:'Yu Gothic';-inkscape-font-specification:'Yu Gothic Bold';stroke-width:0.264583">
      <path
         d="m 13.37324,117.08108 q 0.229444,0 0.355534,0.16674 0.112999,0.14952 0.112999,0.39895 0,0.28594 -0.146761,0.4389 -0.124023,0.13023 -0.32315,0.13023 -0.229443,0 -0.355533,-0.16744 -0.112999,-0.14951 -0.112999,-0.39825 0,-0.28594 0.14745,-0.43959 0.124023,-0.12954 0.32246,-0.12954 z m 0,0.14676 q -0.13298,0 -0.20326,0.1192 -0.06477,0.10956 -0.06477,0.30179 0,0.21842 0.08337,0.32867 0.06959,0.0916 0.184657,0.0916 0.132292,0 0.202572,-0.11988 0.06408,-0.10956 0.06408,-0.30042 0,-0.21979 -0.08268,-0.32935 -0.0689,-0.0916 -0.183968,-0.0916 z"
         id="path8633" />
      <path
         d="m 14.670662,117.42008 v 0.77446 h -0.172254 v -0.13367 q -0.04479,0.0758 -0.116444,0.11713 -0.06339,0.0365 -0.135048,0.0365 -0.10542,0 -0.166743,-0.0648 -0.05719,-0.0613 -0.05719,-0.16399 v -0.56568 h 0.181901 v 0.5147 q 0,0.12746 0.108865,0.12746 0.05236,0 0.106109,-0.0427 0.04547,-0.0365 0.07304,-0.0903 v -0.50918 z"
         id="path8635" />
      <path
         d="m 15.110945,117.16721 v 0.25287 h 0.173633 v 0.12953 h -0.173633 v 0.42513 q 0,0.11162 0.09577,0.11162 0.05168,0 0.09026,-0.009 l -0.0069,0.12678 q -0.05857,0.009 -0.138493,0.009 -0.117822,0 -0.169498,-0.0565 -0.04617,-0.0503 -0.04617,-0.14952 v -0.45751 h -0.115755 v -0.12953 h 0.115755 v -0.21291 z"
         id="path8637" />
      <path
         d="m 15.60635,117.42008 v 0.11438 q 0.08061,-0.13161 0.21704,-0.13161 0.141249,0 0.221175,0.11369 0.07372,0.10611 0.07372,0.28594 0,0.20533 -0.100596,0.31833 -0.08199,0.0923 -0.202572,0.0923 -0.13298,0 -0.20326,-0.12747 v 0.38103 h -0.176389 v -1.04662 z m 0.0055,0.25218 v 0.27423 q 0.05581,0.12953 0.156407,0.12953 0.07993,0 0.124712,-0.0737 0.04341,-0.0703 0.04341,-0.19568 0,-0.14194 -0.05168,-0.21084 -0.04065,-0.0544 -0.106109,-0.0544 -0.109554,0 -0.166742,0.13091 z"
         id="path8639" />
      <path
         d="m 16.943735,117.42008 v 0.77446 H 16.77148 v -0.13367 q -0.04479,0.0758 -0.116444,0.11713 -0.06339,0.0365 -0.135048,0.0365 -0.10542,0 -0.166742,-0.0648 -0.05719,-0.0613 -0.05719,-0.16399 v -0.56568 h 0.181901 v 0.5147 q 0,0.12746 0.108865,0.12746 0.05237,0 0.106109,-0.0427 0.04547,-0.0365 0.07304,-0.0903 v -0.50918 z"
         id="path8641" />
      <path
         d="m 17.384017,117.16721 v 0.25287 h 0.173633 v 0.12953 h -0.173633 v 0.42513 q 0,0.11162 0.09577,0.11162 0.05168,0 0.09026,-0.009 l -0.0069,0.12678 q -0.05857,0.009 -0.138492,0.009 -0.117823,0 -0.169499,-0.0565 -0.04616,-0.0503 -0.04616,-0.14952 v -0.45751 h -0.115755 v -0.12953 h 0.115755 v -0.21291 z"
         id="path8643" />
    </g>
    <g
       id="rect31-9"
       style="display:inline;fill:#c8c8c8;fill-opacity:1;stroke:#000000;stroke-width:0.1;stroke-miterlimit:4;stroke-dasharray:0.01, 0.01;stroke-dashoffset:0;stroke-opacity:1"
       transform="matrix(0.42727259,0,0,1.0000951,0.04306107,0.10079084)">
      <g
         id="path14654"
         style="fill:#c8c8c8;fill-opacity:1;stroke:#000000;stroke-width:0.0990775;stroke-miterlimit:4;stroke-dasharray:0.00990776, 0.00990776;stroke-dashoffset:0;stroke-opacity:1"
         transform="matrix(1.0120186,0,0,1.0066096,-0.42694533,-0.42466342)">
        <path
           style="color:#000000;fill:#c8c8c8;fill-opacity:1;fill-rule:evenodd;stroke:#000000;stroke-width:0.0990775;stroke-miterlimit:4;stroke-dasharray:0.00990776, 0.00990776;stroke-dashoffset:0;stroke-opacity:1"
           d="M 0.47213894,0.47213894 H 70.647859 V 128.02785 H 0.47213894 Z"
           id="path19137" />
        <path
           style="color:#000000;fill:#c8c8c8;fill-opacity:1;fill-rule:evenodd;stroke:#000000;stroke-width:0.0990775;stroke-miterlimit:4;stroke-dasharray:0.00990776, 0.00990776;stroke-dashoffset:0;stroke-opacity:1"
           d="M 0.421875,0.421875 V 0.47265625 128.07812 H 70.697266 V 0.421875 Z M 0.5214844,0.5214844 H 70.597656 V 127.97852 H 0.52148437 Z"
           id="path19139" />
      </g>
      <g
         id="path14656"
         style="fill:#c8c8c8;fill-opacity:1;stroke:#000000;stroke-width:0.1;stroke-miterlimit:4;stroke-dasharray:0.01, 0.01;stroke-dashoffset:0;stroke-opacity:1">
        <path
           style="color:#000000;fill:#c8c8c8;fill-opacity:1;fill-rule:evenodd;stroke:#000000;stroke-width:0.1;stroke-miterlimit:4;stroke-dasharray:0.01, 0.01;stroke-dashoffset:0;stroke-opacity:1"
           d="M 0,0 V 0.47265625 128.5 H 71.119141 V 0 Z M 0.94335938,0.94335938 H 70.175781 V 127.55664 H 0.94335938 Z"
           id="path19143" />
        <path
           style="color:#000000;fill:#c8c8c8;fill-opacity:1;fill-rule:evenodd;stroke:#000000;stroke-width:0.1;stroke-miterlimit:4;stroke-dasharray:0.01, 0.01;stroke-dashoffset:0;stroke-opacity:1"
           d="M -0.05078125,-0.05078125 V 0 0.47265625 128.55078 H 71.169922 V -0.05078125 Z m 0.1015625,0.1015625 H 71.068359 V 128.44922 H 0.05078125 V 0.47265625 Z M 0.89257813,0.89257813 V 0.94335938 127.60742 H 70.226562 V 0.89257813 Z m 0.1015625,0.1015625 H 70.125 V 127.50586 H 0.99414063 Z"
           id="path19145" />
      </g>
    </g>
    <rect
       style="mix-blend-mode:normal;fill:#828282;fill-opacity:1;stroke:#d35f5f;stroke-width:0.131352;stroke-linejoin:round;stroke-miterlimit:4;stroke-dasharray:none;stroke-opacity:1;paint-order:markers fill stroke"
       id="rect39791-3"
       width="9.4208117"
       height="9.7908545"
       x="10.583431"
       y="106.4474"
       ry="2.2506061" />
    <rect
       style="display:inline;fill:#d35f5f;fill-opacity:1;stroke-width:0.158219;stroke-linejoin:round;stroke-miterlimit:4;stroke-dasharray:none;stroke-opacity:0;paint-order:markers fill stroke"
       id="rect10530-8"
       width="27.01528"
       height="78.882248"
       x="1.7290509"
       y="19.432249"
       ry="4.8173256" />
    <rect
       style="mix-blend-mode:normal;fill:#a75f5f;fill-opacity:1;stroke:#d35f5f;stroke-width:0.131352;stroke-linejoin:round;stroke-miterlimit:4;stroke-dasharray:none;stroke-opacity:1;paint-order:markers fill stroke"
       id="rect39791-3-9"
       width="9.4208117"
       height="9.7908545"
       x="10.526285"
       y="22.718182"
       ry="2.2506061" />
    <path
       style="display:inline;fill:none;fill-rule:evenodd;stroke:#000000;stroke-width:0.264583px;stroke-linecap:butt;stroke-linejoin:miter;stroke-opacity:1"
       d="m 11.453036,45.455732 0.0082,-2.713852"
       id="path25626"
       inkscape:connector-type="polyline"
       inkscape:connector-curvature="0" />
    <path
       style="display:inline;fill:none;fill-rule:evenodd;stroke:#000000;stroke-width:0.264583px;stroke-linecap:butt;stroke-linejoin:miter;stroke-opacity:1"
       d="M 10.484695,42.087264 5.809631,44.024076"
       id="path25628"
       inkscape:connector-type="polyline"
       inkscape:connector-curvature="0" />
    <path
       style="display:inline;fill:none;fill-rule:evenodd;stroke:#000000;stroke-width:0.123441;stroke-linecap:butt;stroke-linejoin:miter;stroke-miterlimit:4;stroke-dasharray:none;stroke-opacity:1"
       d="m 8.536904,52.593474 c -0.488301,1.84997 -1.024632,-1.695801 -1.464904,0"
       id="path1530-0-9-7-3-32"
       sodipodi:nodetypes="cc" />
    <path
       style="display:inline;fill:none;fill-rule:evenodd;stroke:#000000;stroke-width:0.130485;stroke-linecap:butt;stroke-linejoin:miter;stroke-miterlimit:4;stroke-dasharray:none;stroke-opacity:1"
       d="m 11.504929,52.598394 -0.04257,-2.25477"
       id="path4426-5-0-1-0-1-0"
       inkscape:connector-type="polyline"
       inkscape:connector-curvature="0" />
    <path
       style="display:inline;fill:none;fill-rule:evenodd;stroke:#000000;stroke-width:0.165;stroke-linecap:butt;stroke-linejoin:miter;stroke-miterlimit:4;stroke-dasharray:none;stroke-opacity:1"
       d="m 8.536905,52.593472 3.032336,-0.05062"
       id="path4426-5-3-1-1-8-8-9"
       inkscape:connector-type="polyline"
       inkscape:connector-curvature="0" />
    <path
       style="display:inline;fill:none;fill-rule:evenodd;stroke:#000000;stroke-width:0.12081px;stroke-linecap:butt;stroke-linejoin:miter;stroke-opacity:1"
       d="m 11.474867,50.343448 0.995393,0.962707"
       id="path4426-5-3-5-1-3-7-6-7"
       inkscape:connector-type="polyline"
       inkscape:connector-curvature="0" />
    <path
       style="display:inline;fill:none;fill-rule:evenodd;stroke:#000000;stroke-width:0.12081px;stroke-linecap:butt;stroke-linejoin:miter;stroke-opacity:1"
       d="M 11.474867,50.343448 10.51216,51.338842"
       id="path4426-5-3-5-7-0-48-6-9-8"
       inkscape:connector-type="polyline"
       inkscape:connector-curvature="0" />
    <path
       style="display:inline;fill:none;fill-rule:evenodd;stroke:#000000;stroke-width:0.264583px;stroke-linecap:butt;stroke-linejoin:miter;stroke-opacity:1"
       d="m 19.020006,45.455574 -0.0082,-2.713852"
       id="path25626-2"
       inkscape:connector-type="polyline"
       inkscape:connector-curvature="0" />
    <path
       style="display:inline;fill:none;fill-rule:evenodd;stroke:#000000;stroke-width:0.264583px;stroke-linecap:butt;stroke-linejoin:miter;stroke-opacity:1"
       d="m 19.988347,42.087106 4.675064,1.936812"
       id="path25628-5"
       inkscape:connector-type="polyline"
       inkscape:connector-curvature="0" />
    <path
       style="display:inline;fill:none;fill-rule:evenodd;stroke:#000000;stroke-width:0.123441;stroke-linecap:butt;stroke-linejoin:miter;stroke-miterlimit:4;stroke-dasharray:none;stroke-opacity:1"
       d="m 21.936138,52.593316 c 0.488301,1.84997 1.024632,-1.695801 1.464904,0"
       id="path1530-0-9-7-3-32-7"
       sodipodi:nodetypes="cc" />
    <path
       style="display:inline;fill:none;fill-rule:evenodd;stroke:#000000;stroke-width:0.130485;stroke-linecap:butt;stroke-linejoin:miter;stroke-miterlimit:4;stroke-dasharray:none;stroke-opacity:1"
       d="m 18.968113,52.598236 0.04257,-2.25477"
       id="path4426-5-0-1-0-1-0-7"
       inkscape:connector-type="polyline"
       inkscape:connector-curvature="0" />
    <path
       style="display:inline;fill:none;fill-rule:evenodd;stroke:#000000;stroke-width:0.165;stroke-linecap:butt;stroke-linejoin:miter;stroke-miterlimit:4;stroke-dasharray:none;stroke-opacity:1"
       d="m 21.936137,52.593314 -3.032336,-0.05062"
       id="path4426-5-3-1-1-8-8-9-8"
       inkscape:connector-type="polyline"
       inkscape:connector-curvature="0" />
    <path
       style="display:inline;fill:none;fill-rule:evenodd;stroke:#000000;stroke-width:0.12081px;stroke-linecap:butt;stroke-linejoin:miter;stroke-opacity:1"
       d="m 18.998175,50.34329 -0.995393,0.962708"
       id="path4426-5-3-5-1-3-7-6-7-8"
       inkscape:connector-type="polyline"
       inkscape:connector-curvature="0" />
    <path
       style="display:inline;fill:none;fill-rule:evenodd;stroke:#000000;stroke-width:0.12081px;stroke-linecap:butt;stroke-linejoin:miter;stroke-opacity:1"
       d="m 18.998175,50.34329 0.962707,0.995394"
       id="path4426-5-3-5-7-0-48-6-9-8-3"
       inkscape:connector-type="polyline"
       inkscape:connector-curvature="0" />
    <g
       aria-label="GLTCH3HR"
       id="text4292"
       style="font-weight:bold;font-size:4.57428px;line-height:1.25;font-family:'Yu Gothic';-inkscape-font-specification:'Yu Gothic Bold';stroke-width:0.190595">
      <path
         d="M 5.6224393,2.9200608 5.0216184,3.063007 Q 4.8853727,2.35721 4.2845518,2.35721 q -0.4444735,0 -0.6834617,0.388635 -0.2166529,0.3551321 -0.2166529,0.9760549 0,0.705797 0.2747248,1.0631627 0.2322876,0.2992936 0.6164557,0.2992936 0.6990964,0 0.7929049,-0.9648871 H 4.2398811 V 3.6437261 H 5.6447746 V 5.513195 H 5.2338042 L 5.1645646,4.9972484 Q 5.0193848,5.2876079 4.7468936,5.4350213 4.5123724,5.5600992 4.2130787,5.5600992 q -0.7236654,0 -1.1234682,-0.5405155 -0.3595991,-0.4846771 -0.3595991,-1.2932168 0,-0.9224499 0.4869106,-1.4227618 0.413204,-0.4221381 1.0586957,-0.4221381 0.576252,0 0.9380847,0.321629 0.2992937,0.2680242 0.4087369,0.7169648 z"
         id="path20273" />
      <path
         d="M 7.0452012,1.9417724 V 4.9927813 H 8.7091848 V 5.4908596 H 6.4220449 V 1.9417724 Z"
         id="path20275" />
      <path
         d="M 11.559176,1.9417724 V 2.4398507 H 10.502714 V 5.4908596 H 9.8795575 V 2.4398507 H 8.8320296 V 1.9417724 Z"
         id="path20277" />
      <path
         d="m 14.775466,2.9580309 -0.598588,0.1451798 q -0.131778,-0.7504678 -0.746,-0.7504678 -0.43554,0 -0.672294,0.3886351 -0.218887,0.3573656 -0.218887,0.9738213 0,0.70133 0.283659,1.0653962 0.234521,0.2992937 0.607522,0.2992937 0.634324,0 0.781737,-0.7594019 l 0.582953,0.1786828 q -0.272492,1.056462 -1.369157,1.056462 -0.750468,0 -1.168139,-0.542749 -0.373001,-0.4846771 -0.373001,-1.2909832 0,-0.9269171 0.482444,-1.4249954 0.408737,-0.4199046 1.058696,-0.4199046 0.576252,0 0.938084,0.3260961 0.308228,0.2791919 0.410971,0.7549349 z"
         id="path20279" />
      <path
         d="M 18.067697,1.9417724 V 5.4908596 H 17.455708 V 3.889415 h -1.4786 V 5.4908596 H 15.365119 V 1.9417724 h 0.611989 v 1.4450972 h 1.4786 V 1.9417724 Z"
         id="path20281" />
      <path
         d="m 18.717656,2.6944737 q 0.104976,-0.3886351 0.415437,-0.5851861 0.265791,-0.1675152 0.641025,-0.1675152 0.504779,0 0.797372,0.2814254 0.250156,0.2389883 0.250156,0.5963539 0,0.3327967 -0.198785,0.5472161 -0.176449,0.1876169 -0.469042,0.2389882 v 0.03127 q 0.377467,0.080407 0.569551,0.3350303 0.167515,0.22112 0.167515,0.5449825 0,0.4958448 -0.348431,0.7862044 -0.301528,0.2523894 -0.768336,0.2523894 -0.886714,0 -1.110067,-0.7728031 l 0.560617,-0.1652816 q 0.06254,0.2791919 0.207719,0.3931022 0.125078,0.1005091 0.337264,0.1005091 0.26579,0 0.408736,-0.1764493 0.127312,-0.1563475 0.127312,-0.413204 0,-0.6320904 -0.676761,-0.6320904 H 19.363147 V 3.4226062 h 0.241222 q 0.641025,0 0.641025,-0.5494497 0,-0.2523894 -0.147414,-0.3797009 -0.125078,-0.1094432 -0.332797,-0.1094432 -0.203251,0 -0.332796,0.1340121 -0.120611,0.1250779 -0.151881,0.3461979 z"
         id="path20283" />
      <path
         d="M 24.243421,1.9417724 V 5.4908596 H 23.631432 V 3.889415 h -1.4786 V 5.4908596 H 21.540843 V 1.9417724 h 0.611989 v 1.4450972 h 1.4786 V 1.9417724 Z"
         id="path20285" />
      <path
         d="m 25.094398,1.9417724 h 1.275348 q 1.25748,0 1.25748,0.9648872 0,0.355132 -0.205485,0.5941203 -0.180916,0.2121858 -0.498078,0.3082278 l 0.819707,1.6818519 h -0.66336 l -0.719198,-1.5902769 -0.160814,0.00447 h -0.502546 v 1.5858099 h -0.603054 z m 0.603054,0.4623418 v 1.0430609 h 0.618689 q 0.69463,0 0.69463,-0.5315814 0,-0.5114795 -0.667827,-0.5114795 z"
         id="path20287" />
    </g>
    <path
       id="path14505"
       style="fill:none;fill-rule:evenodd;stroke:#000000;stroke-width:0.15;stroke-linecap:butt;stroke-linejoin:miter;stroke-miterlimit:4;stroke-dasharray:none;stroke-opacity:1"
       d="m 14.905984,125.55482 -1.23025,0.46371 m 2.13804,-0.85809 c 0,0 0.778723,0.93553 0.4401,2.08166 m -2.619867,-2.84659 c 6.252956,-0.72735 1.271977,1.15931 1.271977,1.15931 m 1.179524,-1.34645 -0.874727,3.05031 m 0.08217,-3.00028 -0.870813,2.96871 m 0.111441,-2.9247 -0.848561,2.91869" />
    <g
       aria-label="Start"
       id="text10810"
       style="font-weight:bold;font-size:1.41111px;line-height:1.25;font-family:'Yu Gothic';-inkscape-font-specification:'Yu Gothic Bold';display:inline;stroke-width:0.264583"
       transform="matrix(1.3829065,0,0,1.3829065,-1.917807,-17.805052)">
      <path
         d="m 4.1500349,47.587156 -0.184657,0.0503 Q 3.9226587,47.45831 3.7703856,47.45831 q -0.092328,0 -0.1412488,0.04341 -0.041341,0.03721 -0.041341,0.09922 0,0.07717 0.047542,0.117133 0.043408,0.03583 0.1536511,0.06615 l 0.057878,0.01722 q 0.1922362,0.05237 0.2632051,0.137115 0.057188,0.0689 0.057188,0.186035 0,0.159163 -0.112999,0.245291 -0.1033528,0.07924 -0.2824976,0.07924 -0.1729437,0 -0.2804306,-0.07993 -0.097152,-0.07235 -0.1329806,-0.20395 l 0.1819009,-0.05788 q 0.022738,0.101286 0.088883,0.152963 0.057189,0.04479 0.1384928,0.04479 0.2094616,0 0.2094616,-0.156407 0,-0.07855 -0.046164,-0.117134 -0.044786,-0.0379 -0.1674315,-0.07235 l -0.0565,-0.01654 q -0.1825899,-0.05443 -0.2508027,-0.138493 -0.057189,-0.07028 -0.057189,-0.190858 0,-0.138493 0.1074869,-0.221864 0.09853,-0.07717 0.258382,-0.07717 0.298345,0 0.3851614,0.272851 z"
         id="path20262" />
      <path
         d="m 4.562068,47.400432 v 0.25287 h 0.1736327 v 0.129536 H 4.562068 v 0.425124 q 0,0.111621 0.095774,0.111621 0.051676,0 0.090261,-0.009 l -0.00689,0.126779 q -0.058567,0.009 -0.1384927,0.009 -0.1178222,0 -0.1694986,-0.0565 -0.046164,-0.0503 -0.046164,-0.149517 V 47.782838 H 4.2713021 v -0.129536 h 0.1157552 v -0.212906 z"
         id="path20264" />
      <path
         d="m 4.8638582,47.848295 q 0.059945,-0.213596 0.3203936,-0.213596 0.3004121,0 0.3004121,0.257004 v 0.307302 q 0,0.11231 0.012402,0.228754 H 5.3337688 q -0.00758,-0.04341 -0.013091,-0.101286 -0.083371,0.11989 -0.2439126,0.11989 -0.1150661,0 -0.1805229,-0.07028 -0.057878,-0.06201 -0.057878,-0.159853 0,-0.206705 0.2528698,-0.255625 0.093706,-0.01792 0.221175,-0.02205 v -0.0441 q 0,-0.07717 -0.036518,-0.109554 -0.031695,-0.02756 -0.097841,-0.02756 -0.060634,0 -0.1005967,0.03927 -0.036518,0.03583 -0.047542,0.09646 z m 0.4485511,0.199815 q -0.088883,0.0021 -0.1777668,0.02274 -0.1267794,0.03032 -0.1267794,0.131602 0,0.117133 0.1240233,0.117133 0.112999,0 0.1805229,-0.127468 z"
         id="path20266" />
      <path
         d="m 6.1144268,47.636077 -0.011713,0.166742 q -0.148139,0 -0.219797,0.196371 v 0.428569 h -0.175011 v -0.774457 h 0.1667425 v 0.190169 q 0.075103,-0.207394 0.2397785,-0.207394 z"
         id="path20268" />
      <path
         d="m 6.4727166,47.400432 v 0.25287 h 0.1736326 v 0.129536 H 6.4727166 v 0.425124 q 0,0.111621 0.095773,0.111621 0.051676,0 0.090262,-0.009 l -0.00689,0.126779 q -0.058567,0.009 -0.1384927,0.009 -0.1178222,0 -0.1694986,-0.0565 -0.046164,-0.0503 -0.046164,-0.149517 V 47.782838 H 6.1819507 v -0.129536 h 0.1157551 v -0.212906 z"
         id="path20270" />
    </g>
    <g
       aria-label="End"
       id="text10810-6"
       style="font-weight:bold;font-size:1.41111px;line-height:1.25;font-family:'Yu Gothic';-inkscape-font-specification:'Yu Gothic Bold';display:inline;stroke-width:0.264583"
       transform="matrix(1.3149609,0,0,1.3149609,-8.020318,-13.855861)">
      <path
         d="m 24.983554,46.805119 v 0.150895 h -0.532611 v 0.289387 h 0.402386 v 0.150895 h -0.402386 v 0.352778 h 0.543635 v 0.150895 h -0.733805 v -1.09485 z"
         id="path20255" />
      <path
         d="m 25.330819,47.125512 v 0.135737 q 0.05099,-0.07579 0.121268,-0.116444 0.06408,-0.03652 0.13298,-0.03652 0.10542,0 0.166054,0.0689 0.05512,0.06201 0.05512,0.163986 v 0.558794 H 25.62434 V 47.39078 q 0,-0.130224 -0.107487,-0.130224 -0.04961,0 -0.101974,0.03996 -0.04479,0.03514 -0.07855,0.09164 v 0.507807 h -0.177766 v -0.774457 z"
         id="path20257" />
      <path
         d="m 26.668204,46.785137 v 1.114832 h -0.170876 v -0.107487 q -0.0751,0.127469 -0.217041,0.127469 -0.139182,0 -0.221175,-0.11989 -0.0751,-0.110932 -0.0751,-0.290765 0,-0.20395 0.09784,-0.312126 0.07855,-0.08751 0.198437,-0.08751 0.139182,0 0.211529,0.123334 v -0.447862 z m -0.176388,0.596001 q -0.05374,-0.132981 -0.160542,-0.132981 -0.07717,0 -0.121956,0.07235 -0.04341,0.06959 -0.04341,0.191548 0,0.142626 0.05581,0.213595 0.0441,0.05581 0.113688,0.05581 0.100597,0 0.156408,-0.129536 z"
         id="path20259" />
    </g>
    <g
       aria-label="Threshold"
       id="text18539"
       style="font-weight:bold;font-size:1.41111px;line-height:1.25;font-family:'Yu Gothic';-inkscape-font-specification:'Yu Gothic Bold';display:inline;stroke-width:0.264583"
       transform="matrix(1.3365019,0,0,1.3365019,-5.1271759,-27.333018)">
      <path
         d="m 12.698003,80.679504 v 0.153652 h -0.325906 v 0.941199 h -0.192236 v -0.941199 h -0.32315 v -0.153652 z"
         id="path20236" />
      <path
         d="m 13.034244,80.659523 v 0.471289 q 0.104042,-0.146761 0.248736,-0.146761 0.105419,0 0.166053,0.06821 0.05512,0.06201 0.05512,0.163298 v 0.558794 h -0.181901 v -0.507807 q 0,-0.130224 -0.107487,-0.130224 -0.04961,0 -0.101975,0.04134 -0.04479,0.03514 -0.07855,0.09164 v 0.505051 h -0.177767 v -1.114832 z"
         id="path20238" />
      <path
         d="m 14.135296,80.982673 -0.01171,0.166742 q -0.148139,0 -0.219797,0.19637 v 0.42857 h -0.17501 v -0.774457 h 0.166742 v 0.190169 q 0.0751,-0.207394 0.239779,-0.207394 z"
         id="path20240" />
      <path
         d="m 14.93249,81.425711 h -0.523654 q 0.0014,0.121268 0.0565,0.186036 0.0503,0.05857 0.138492,0.05857 0.124713,0 0.163298,-0.14745 l 0.16123,0.04685 q -0.07304,0.22462 -0.326595,0.22462 -0.185346,0 -0.281808,-0.119889 -0.08475,-0.104731 -0.08475,-0.282497 0,-0.201194 0.110243,-0.312815 0.0944,-0.09646 0.241157,-0.09646 0.163986,0 0.259071,0.1192 0.08682,0.108176 0.08682,0.287321 z m -0.173633,-0.117133 q -0.01309,-0.20326 -0.169498,-0.20326 -0.08475,0 -0.131603,0.06201 -0.03996,0.05305 -0.04616,0.141248 z"
         id="path20242" />
      <path
         d="m 15.670429,81.180421 -0.168121,0.04823 q -0.02894,-0.124712 -0.137803,-0.124712 -0.05926,0 -0.09302,0.02756 -0.02825,0.02205 -0.02825,0.05581 0,0.04892 0.03101,0.07304 0.02894,0.02205 0.106798,0.04272 l 0.06477,0.01723 q 0.14056,0.03721 0.193614,0.09577 0.04685,0.05168 0.04685,0.139871 0,0.115755 -0.08888,0.179145 -0.08199,0.05926 -0.22462,0.05926 -0.25287,0 -0.32315,-0.193614 l 0.165365,-0.05788 q 0.03721,0.130224 0.161919,0.130224 0.141249,0 0.141249,-0.09991 0,-0.04961 -0.03307,-0.07235 -0.02825,-0.0186 -0.116444,-0.0441 l -0.06477,-0.01791 q -0.134359,-0.03583 -0.183968,-0.09371 -0.04341,-0.05099 -0.04341,-0.141938 0,-0.104041 0.08475,-0.164675 0.07786,-0.05581 0.206017,-0.05581 0.236333,0 0.303168,0.197748 z"
         id="path20244" />
      <path
         d="m 16.04181,80.659523 v 0.471289 q 0.104042,-0.146761 0.248736,-0.146761 0.10542,0 0.166053,0.06821 0.05512,0.06201 0.05512,0.163298 v 0.558794 H 16.32982 v -0.507807 q 0,-0.130224 -0.107487,-0.130224 -0.04961,0 -0.101975,0.04134 -0.04479,0.03514 -0.07855,0.09164 v 0.505051 h -0.177767 v -1.114832 z"
         id="path20246" />
      <path
         d="m 17.040887,80.982673 q 0.169498,0 0.265272,0.121956 0.08475,0.108176 0.08475,0.281808 0,0.200505 -0.108865,0.312126 -0.09371,0.09577 -0.242534,0.09577 -0.170877,0 -0.265961,-0.121956 -0.08406,-0.107487 -0.08406,-0.281808 0,-0.199816 0.109554,-0.312126 0.0944,-0.09577 0.241846,-0.09577 z m 0,0.128157 q -0.169499,0 -0.169499,0.276985 0,0.278364 0.168121,0.278364 0.169498,0 0.169498,-0.278364 0,-0.276985 -0.16812,-0.276985 z"
         id="path20248" />
      <path
         d="m 17.750576,80.659523 v 1.114832 h -0.177767 v -1.114832 z"
         id="path20250" />
      <path
         d="m 18.616672,80.659523 v 1.114832 h -0.170876 v -0.107487 q -0.0751,0.127468 -0.217041,0.127468 -0.139182,0 -0.221175,-0.119889 -0.0751,-0.110932 -0.0751,-0.290766 0,-0.203949 0.09784,-0.312125 0.07855,-0.08751 0.198438,-0.08751 0.139182,0 0.211529,0.123334 v -0.447862 z m -0.176388,0.596001 q -0.05374,-0.132981 -0.160542,-0.132981 -0.07717,0 -0.121956,0.07235 -0.04341,0.06959 -0.04341,0.191547 0,0.142627 0.05581,0.213596 0.0441,0.05581 0.113688,0.05581 0.100597,0 0.156408,-0.129536 z"
         id="path20252" />
    </g>
    <g
       aria-label="Input"
       id="text1407"
       style="font-weight:bold;font-size:1.41111px;line-height:1.25;font-family:'Yu Gothic';-inkscape-font-specification:'Yu Gothic Bold';stroke-width:0.264583"
       transform="matrix(2.1006951,0,0,2.1006951,-16.770948,-36.706865)">
      <path
         d="m 13.706725,33.029003 v 1.094851 h -0.192236 v -1.094851 z"
         id="path8663" />
      <path
         d="m 14.12427,33.349397 v 0.135736 q 0.05099,-0.07579 0.121268,-0.116444 0.06408,-0.03652 0.13298,-0.03652 0.10542,0 0.166054,0.0689 0.05512,0.06201 0.05512,0.163987 v 0.558794 h -0.181901 v -0.509185 q 0,-0.130225 -0.107487,-0.130225 -0.04961,0 -0.101974,0.03996 -0.04479,0.03514 -0.07855,0.09164 v 0.507807 H 13.952013 V 33.34939 Z"
         id="path8665" />
      <path
         d="m 14.99519,33.349397 v 0.114377 q 0.08062,-0.131603 0.217041,-0.131603 0.141248,0 0.221175,0.113688 0.07372,0.106109 0.07372,0.285943 0,0.205328 -0.100597,0.318327 -0.08199,0.09233 -0.202572,0.09233 -0.13298,0 -0.20326,-0.127468 v 0.381027 h -0.176389 v -1.046619 z m 0.0055,0.252181 v 0.274229 q 0.05581,0.129535 0.156407,0.129535 0.07993,0 0.124713,-0.07372 0.04341,-0.07028 0.04341,-0.195681 0,-0.141938 -0.05168,-0.21084 -0.04065,-0.05443 -0.106109,-0.05443 -0.109553,0 -0.166742,0.130914 z"
         id="path8667" />
      <path
         d="m 16.332575,33.349397 v 0.774457 H 16.16032 v -0.13367 q -0.04479,0.07579 -0.116444,0.117133 -0.06339,0.03652 -0.135047,0.03652 -0.10542,0 -0.166743,-0.06477 -0.05719,-0.06132 -0.05719,-0.163986 v -0.565684 h 0.1819 v 0.514697 q 0,0.127468 0.108865,0.127468 0.05237,0 0.106109,-0.04272 0.04547,-0.03652 0.07304,-0.09026 v -0.509184 z"
         id="path8669" />
      <path
         d="m 16.772858,33.096527 v 0.25287 h 0.173633 v 0.129535 h -0.173633 v 0.425125 q 0,0.111621 0.09577,0.111621 0.05168,0 0.09026,-0.009 l -0.0069,0.12678 q -0.05857,0.009 -0.138493,0.009 -0.117822,0 -0.169499,-0.0565 -0.04616,-0.0503 -0.04616,-0.149517 v -0.457509 h -0.115755 v -0.129535 h 0.115755 V 33.13649 Z"
         id="path8671" />
    </g>
    <g
       aria-label="Smoothen"
       id="text8353"
       style="font-weight:bold;font-size:1.41111px;line-height:1.25;font-family:'Yu Gothic';-inkscape-font-specification:'Yu Gothic Bold';stroke-width:0.264583"
       transform="matrix(1.3697084,0,0,1.3697084,-5.6331324,-35.976699)">
      <path
         d="m 12.610152,95.585844 -0.184657,0.0503 q -0.04272,-0.179145 -0.194992,-0.179145 -0.09233,0 -0.141249,0.04341 -0.04134,0.03721 -0.04134,0.09922 0,0.07717 0.04754,0.117133 0.04341,0.03583 0.153651,0.06615 l 0.05788,0.01722 q 0.192236,0.05236 0.263205,0.137115 0.05719,0.0689 0.05719,0.186035 0,0.159163 -0.112999,0.24529 -0.103353,0.07924 -0.282498,0.07924 -0.172943,0 -0.28043,-0.07993 -0.09715,-0.07235 -0.132981,-0.203949 l 0.181901,-0.05788 q 0.02274,0.101286 0.08888,0.152962 0.05719,0.04479 0.138493,0.04479 0.209462,0 0.209462,-0.156408 0,-0.07855 -0.04616,-0.117133 -0.04479,-0.0379 -0.167432,-0.07235 l -0.0565,-0.01654 q -0.18259,-0.05443 -0.250803,-0.138493 -0.05719,-0.07028 -0.05719,-0.190858 0,-0.138493 0.107487,-0.221864 0.09853,-0.07717 0.258382,-0.07717 0.298345,0 0.385161,0.272851 z"
         id="path8646" />
      <path
         d="m 12.980155,95.65199 v 0.135737 q 0.09922,-0.152962 0.243913,-0.152962 0.08061,0 0.132981,0.04685 0.04341,0.03996 0.05788,0.104731 0.09991,-0.151584 0.245291,-0.151584 0.102664,0 0.159852,0.0689 0.05168,0.06132 0.05168,0.163987 v 0.558794 h -0.177766 v -0.509185 q 0,-0.130224 -0.107487,-0.130224 -0.04823,0 -0.09577,0.04134 -0.04065,0.03583 -0.06615,0.09026 v 0.507807 h -0.17501 v -0.509185 q 0,-0.130224 -0.09577,-0.130224 -0.04892,0 -0.09784,0.04065 -0.04272,0.03583 -0.07028,0.09095 v 0.507807 H 12.810657 V 95.65199 Z"
         id="path8648" />
      <path
         d="m 14.400912,95.634765 q 0.169498,0 0.265272,0.121956 0.08475,0.108176 0.08475,0.281808 0,0.200505 -0.108865,0.312126 -0.09371,0.09577 -0.242534,0.09577 -0.170877,0 -0.265961,-0.121956 -0.08406,-0.107487 -0.08406,-0.281808 0,-0.199816 0.109554,-0.312126 0.0944,-0.09577 0.241846,-0.09577 z m 0,0.128157 q -0.169499,0 -0.169499,0.276985 0,0.278364 0.168121,0.278364 0.169498,0 0.169498,-0.278364 0,-0.276985 -0.16812,-0.276985 z"
         id="path8650" />
      <path
         d="m 15.23738,95.634765 q 0.169499,0 0.265273,0.121956 0.08475,0.108176 0.08475,0.281808 0,0.200505 -0.108865,0.312126 -0.09371,0.09577 -0.242535,0.09577 -0.170876,0 -0.265961,-0.121956 -0.08406,-0.107487 -0.08406,-0.281808 0,-0.199816 0.109554,-0.312126 0.0944,-0.09577 0.241844,-0.09577 z m 0,0.128157 q -0.169498,0 -0.169498,0.276985 0,0.278364 0.16812,0.278364 0.169499,0 0.169499,-0.278364 0,-0.276985 -0.168121,-0.276985 z"
         id="path8652" />
      <path
         d="m 15.980831,95.39912 v 0.25287 h 0.173633 v 0.129535 h -0.173633 v 0.425125 q 0,0.111621 0.09577,0.111621 0.05168,0 0.09026,-0.009 l -0.0069,0.126779 q -0.05857,0.009 -0.138493,0.009 -0.117822,0 -0.169498,-0.0565 -0.04616,-0.0503 -0.04616,-0.149517 V 95.781525 H 15.690066 V 95.65199 h 0.115755 v -0.212907 z"
         id="path8654" />
      <path
         d="m 16.483126,95.311615 v 0.471289 q 0.104042,-0.146761 0.248735,-0.146761 0.10542,0 0.166054,0.06821 0.05512,0.06201 0.05512,0.163298 v 0.558794 h -0.1819 V 95.91864 q 0,-0.130224 -0.107487,-0.130224 -0.04961,0 -0.101975,0.04134 -0.04479,0.03514 -0.07855,0.09164 v 0.505051 h -0.177767 v -1.114832 z"
         id="path8656" />
      <path
         d="m 17.82809,96.077803 h -0.523654 q 0.0014,0.121268 0.0565,0.186035 0.0503,0.05857 0.138492,0.05857 0.124713,0 0.163298,-0.14745 l 0.16123,0.04685 q -0.07304,0.22462 -0.326595,0.22462 -0.185346,0 -0.281808,-0.119889 -0.08475,-0.104731 -0.08475,-0.282497 0,-0.201194 0.110243,-0.312815 0.0944,-0.09646 0.241157,-0.09646 0.163986,0 0.259071,0.1192 0.08682,0.108176 0.08682,0.28732 z M 17.654458,95.96067 q -0.01309,-0.20326 -0.169499,-0.20326 -0.08475,0 -0.131603,0.06201 -0.03996,0.05305 -0.04616,0.141248 z"
         id="path8658" />
      <path
         d="m 18.17949,95.65199 v 0.135737 q 0.05099,-0.07579 0.121267,-0.116444 0.06408,-0.03652 0.132981,-0.03652 0.105419,0 0.166053,0.0689 0.05512,0.06201 0.05512,0.163987 v 0.558794 H 18.47301 v -0.509185 q 0,-0.130224 -0.107487,-0.130224 -0.04961,0 -0.101975,0.03996 -0.04479,0.03514 -0.07855,0.09164 v 0.507807 H 18.007235 V 95.65199 Z"
         id="path8660" />
    </g>
    <g
       aria-label="Output"
       id="text9285"
       style="font-weight:bold;font-size:1.41111px;line-height:1.25;font-family:'Yu Gothic';-inkscape-font-specification:'Yu Gothic Bold';stroke-width:0.264583"
       transform="matrix(1.866558,0,0,1.866558,-13.252996,-102.13995)">
      <path
         d="m 13.430386,117.17577 q 0.229444,0 0.355534,0.16674 0.112999,0.14952 0.112999,0.39894 0,0.28595 -0.146761,0.43891 -0.124023,0.13022 -0.32315,0.13022 -0.229443,0 -0.355533,-0.16743 -0.112999,-0.14951 -0.112999,-0.39825 0,-0.28594 0.14745,-0.43959 0.124023,-0.12954 0.32246,-0.12954 z m 0,0.14676 q -0.13298,0 -0.20326,0.1192 -0.06477,0.10956 -0.06477,0.30179 0,0.21842 0.08337,0.32866 0.06959,0.0916 0.184657,0.0916 0.132292,0 0.202572,-0.11989 0.06408,-0.10955 0.06408,-0.30041 0,-0.2198 -0.08268,-0.32935 -0.0689,-0.0916 -0.183968,-0.0916 z"
         id="path9961" />
      <path
         d="m 14.727808,117.51477 v 0.77445 h -0.172254 v -0.13367 q -0.04479,0.0758 -0.116444,0.11714 -0.06339,0.0365 -0.135048,0.0365 -0.10542,0 -0.166743,-0.0648 -0.05719,-0.0613 -0.05719,-0.16399 v -0.56568 h 0.181901 v 0.51469 q 0,0.12747 0.108865,0.12747 0.05236,0 0.106109,-0.0427 0.04548,-0.0365 0.07304,-0.0903 v -0.50918 z"
         id="path9963" />
      <path
         d="m 15.168091,117.2619 v 0.25287 h 0.173633 v 0.12953 h -0.173633 v 0.42513 q 0,0.11162 0.09577,0.11162 0.05168,0 0.09026,-0.009 l -0.0069,0.12678 q -0.05857,0.009 -0.138493,0.009 -0.117822,0 -0.169498,-0.0565 -0.04616,-0.0503 -0.04616,-0.14952 v -0.45751 h -0.115756 v -0.12953 h 0.115756 v -0.21291 z"
         id="path9965" />
      <path
         d="m 15.663496,117.51477 v 0.11437 q 0.08061,-0.1316 0.217041,-0.1316 0.141248,0 0.221175,0.11369 0.07372,0.10611 0.07372,0.28594 0,0.20533 -0.100597,0.31833 -0.08199,0.0923 -0.202572,0.0923 -0.13298,0 -0.20326,-0.12747 v 0.38103 h -0.176389 v -1.04662 z m 0.0055,0.25218 v 0.27423 q 0.05581,0.12953 0.156407,0.12953 0.07993,0 0.124712,-0.0737 0.04341,-0.0703 0.04341,-0.19568 0,-0.14194 -0.05168,-0.21084 -0.04065,-0.0544 -0.106109,-0.0544 -0.109554,0 -0.166742,0.13092 z"
         id="path9967" />
      <path
         d="m 17.000881,117.51477 v 0.77445 h -0.172255 v -0.13367 q -0.04479,0.0758 -0.116444,0.11714 -0.06339,0.0365 -0.135048,0.0365 -0.10542,0 -0.166742,-0.0648 -0.05719,-0.0613 -0.05719,-0.16399 v -0.56568 h 0.181901 v 0.51469 q 0,0.12747 0.108865,0.12747 0.05237,0 0.106109,-0.0427 0.04548,-0.0365 0.07304,-0.0903 v -0.50918 z"
         id="path9969" />
      <path
         d="m 17.441164,117.2619 v 0.25287 h 0.173632 v 0.12953 h -0.173632 v 0.42513 q 0,0.11162 0.09577,0.11162 0.05168,0 0.09026,-0.009 l -0.0069,0.12678 q -0.05857,0.009 -0.138492,0.009 -0.117823,0 -0.169499,-0.0565 -0.04616,-0.0503 -0.04616,-0.14952 v -0.45751 h -0.115755 v -0.12953 h 0.115755 v -0.21291 z"
         id="path9971" />
    </g>
  </g>
  <g
     inkscape:groupmode="layer"
     id="layer2"
     inkscape:label="components"
     style="display:none">
    <circle
       style="display:inline;fill:#0000ff;stroke:none;stroke-width:0.266667;stroke-linejoin:round;stroke-dasharray:0.266667, 0.533333;paint-order:markers fill stroke"
       id="AUDIO_OUT"
       cx="15.236691"
       cy="111.34283"
       r="1.0723226"
       inkscape:label="AUDIO_OUT">
      <title
         id="title9463">AUDIO_OUT</title>
    </circle>
    <circle
       style="display:inline;fill:#ff0000;stroke:none;stroke-width:0.211111;stroke-linejoin:round;stroke-dasharray:0.211111, 0.422222;paint-order:markers fill stroke"
       id="THRESHOLD_PARAM"
       cx="15.236691"
       cy="77.385956"
       r="0.84892201"
       inkscape:label="THRESHOLD_PARAM">
      <title
         id="title9461">THRESHOLD_PARAM</title>
    </circle>
    <ellipse
       style="display:inline;fill:#00ff00;stroke:none;stroke-width:0.242851;stroke-linejoin:round;stroke-dasharray:0.242851, 0.485702;paint-order:markers fill stroke"
       id="AUDIO_IN"
       cx="15.236691"
       cy="27.613609"
       rx="0.97600001"
       ry="0.97661173"
       inkscape:label="AUDIO_IN">
      <title
         id="title9443">AUDIO_IN</title>
    </ellipse>
    <ellipse
       style="display:inline;fill:#00ff00;stroke:none;stroke-width:0.242851;stroke-linejoin:round;stroke-dasharray:0.242851, 0.485702;paint-order:markers fill stroke"
       id="THRESHOLD_IN"
       cx="15.236691"
       cy="65.46196"
       rx="0.97649997"
       ry="0.97661173"
       inkscape:label="THRESHOLD_IN">
      <title
         id="title9459">THRESHOLD_IN</title>
    </ellipse>
    <circle
       style="display:inline;fill:#00ff00;stroke:none;stroke-width:0.115;stroke-linejoin:round;paint-order:markers fill stroke"
       id="START_CV_IN"
       cx="11.492293"
       cy="47.396667"
       r="1.0276425"
       inkscape:label="START_CV_IN">
      <title
         id="title9453">START_CV_IN</title>
    </circle>
    <circle
       style="display:inline;fill:#ff0000;stroke:none;stroke-width:0.118683;stroke-linejoin:round;paint-order:markers fill stroke"
       id="START_PARAM"
       cx="5.0085521"
       cy="44.315678"
       r="1.0605514"
       inkscape:label="START_PARAM" />
    <circle
       style="display:inline;fill:#ff0000;stroke:none;stroke-width:0.118683;stroke-linejoin:round;paint-order:markers fill stroke"
       id="START_CV_PARAM"
       cx="11.464492"
       cy="41.61171"
       r="1.0605514"
       inkscape:label="START_CV_PARAM">
      <title
         id="title9447">START_CV_PARAM</title>
    </circle>
    <circle
       style="display:inline;fill:#00ff00;stroke:none;stroke-width:0.115;stroke-linejoin:round;paint-order:markers fill stroke"
       id="END_CV_IN"
       cx="-18.980751"
       cy="47.396511"
       r="1.0276425"
       transform="scale(-1,1)"
       inkscape:label="END_CV_IN">
      <title
         id="title9455">END_CV_IN</title>
    </circle>
    <circle
       style="display:inline;fill:#ff0000;stroke:none;stroke-width:0.118683;stroke-linejoin:round;paint-order:markers fill stroke"
       id="END_PARAM"
       cx="-25.464489"
       cy="44.315521"
       r="1.0605514"
       transform="scale(-1,1)"
       inkscape:label="END_PARAM">
      <title
         id="title9451">END_PARAM</title>
    </circle>
    <circle
       style="display:inline;fill:#ff0000;stroke:none;stroke-width:0.118683;stroke-linejoin:round;paint-order:markers fill stroke"
       id="END_CV_PARAM"
       cx="-19.008553"
       cy="41.611553"
       r="1.0605514"
       transform="scale(-1,1)"
       inkscape:label="END_CV_PARAM">
      <title
         id="title9445">END_CV_PARAM</title>
    </circle>
    <circle
       style="display:inline;fill:#ff00ff;stroke:none;stroke-width:0.2;stroke-linejoin:round;paint-order:markers fill stroke"
       id="ACTIVE_LIGHT"
       cx="15.236691"
       cy="56.378094"
       r="1.7872044"
       inkscape:label="ACTIVE_LIGHT">
      <title
         id="title9457">ACTIVE_LIGHT</title>
    </circle>
  </g>
</svg>
