<?xml version="1.0" encoding="UTF-8" standalone="no"?>
<!-- Created with Inkscape (http://www.inkscape.org/) -->

<svg
   width="10.16mm"
   height="128.5mm"
   viewBox="0 0 10.16 128.5"
   version="1.1"
   id="svg5"
   inkscape:version="1.1.1 (3bf5ae0d25, 2021-09-20)"
   sodipodi:docname="Xtenuat3hr.svg"
   xmlns:inkscape="http://www.inkscape.org/namespaces/inkscape"
   xmlns:sodipodi="http://sodipodi.sourceforge.net/DTD/sodipodi-0.dtd"
   xmlns="http://www.w3.org/2000/svg"
   xmlns:svg="http://www.w3.org/2000/svg">
  <sodipodi:namedview
     id="namedview7"
     pagecolor="#ffffff"
     bordercolor="#999999"
     borderopacity="1"
     inkscape:pageshadow="0"
     inkscape:pageopacity="0"
     inkscape:pagecheckerboard="0"
     inkscape:document-units="mm"
     showgrid="false"
     units="mm"
     inkscape:zoom="0.6056723"
     inkscape:cx="-644.73809"
     inkscape:cy="192.34824"
     inkscape:window-width="1920"
     inkscape:window-height="1017"
     inkscape:window-x="-8"
     inkscape:window-y="-8"
     inkscape:window-maximized="1"
     inkscape:current-layer="layer1" />
  <defs
     id="defs2">
    <linearGradient
       id="linearGradient5176"
       inkscape:swatch="solid">
      <stop
         style="stop-color:#000000;stop-opacity:0;"
         offset="0"
         id="stop5174" />
    </linearGradient>
    <linearGradient
       id="linearGradient964"
       inkscape:swatch="gradient">
      <stop
         style="stop-color:#666666;stop-opacity:0;"
         offset="0"
         id="stop962" />
      <stop
         style="stop-color:#000000;stop-opacity:1;"
         offset="1"
         id="stop960" />
    </linearGradient>
  </defs>
  <g
     inkscape:label="Layer 1"
     inkscape:groupmode="layer"
     id="layer1">
    <g
       id="rect31"
       style="display:inline;fill:#c8c8c8;fill-opacity:1;stroke:#000000;stroke-width:0.1;stroke-miterlimit:4;stroke-dasharray:0.01, 0.01;stroke-dashoffset:0;stroke-opacity:1"
       transform="matrix(0.14212569,0,0,1.0004844,0.0143236,0.10083007)">
      <g
         id="path14654"
         style="fill:#c8c8c8;fill-opacity:1;stroke:#000000;stroke-width:0.0990775;stroke-miterlimit:4;stroke-dasharray:0.00990776, 0.00990776;stroke-dashoffset:0;stroke-opacity:1"
         transform="matrix(1.0120186,0,0,1.0066096,-0.42694533,-0.42466342)">
        <path
           style="color:#000000;fill:#c8c8c8;fill-opacity:1;fill-rule:evenodd;stroke:#000000;stroke-width:0.0990775;stroke-miterlimit:4;stroke-dasharray:0.00990776, 0.00990776;stroke-dashoffset:0;stroke-opacity:1"
           d="M 0.47213894,0.47213894 H 70.647859 V 128.02785 H 0.47213894 Z"
           id="path19137" />
        <path
           style="color:#000000;fill:#c8c8c8;fill-opacity:1;fill-rule:evenodd;stroke:#000000;stroke-width:0.0990775;stroke-miterlimit:4;stroke-dasharray:0.00990776, 0.00990776;stroke-dashoffset:0;stroke-opacity:1"
           d="M 0.421875,0.421875 V 0.47265625 128.07812 H 70.697266 V 0.421875 Z M 0.5214844,0.5214844 H 70.597656 V 127.97852 H 0.52148437 Z"
           id="path19139" />
      </g>
      <g
         id="path14656"
         style="fill:#c8c8c8;fill-opacity:1;stroke:#000000;stroke-width:0.1;stroke-miterlimit:4;stroke-dasharray:0.01, 0.01;stroke-dashoffset:0;stroke-opacity:1">
        <path
           style="color:#000000;fill:#c8c8c8;fill-opacity:1;fill-rule:evenodd;stroke:#000000;stroke-width:0.1;stroke-miterlimit:4;stroke-dasharray:0.01, 0.01;stroke-dashoffset:0;stroke-opacity:1"
           d="M 0,0 V 0.47265625 128.5 H 71.119141 V 0 Z M 0.94335938,0.94335938 H 70.175781 V 127.55664 H 0.94335938 Z"
           id="path19143" />
        <path
           style="color:#000000;fill:#c8c8c8;fill-opacity:1;fill-rule:evenodd;stroke:#000000;stroke-width:0.1;stroke-miterlimit:4;stroke-dasharray:0.01, 0.01;stroke-dashoffset:0;stroke-opacity:1"
           d="M -0.05078125,-0.05078125 V 0 0.47265625 128.55078 H 71.169922 V -0.05078125 Z m 0.1015625,0.1015625 H 71.068359 V 128.44922 H 0.05078125 V 0.47265625 Z M 0.89257813,0.89257813 V 0.94335938 127.60742 H 70.226562 V 0.89257813 Z m 0.1015625,0.1015625 H 70.125 V 127.50586 H 0.99414063 Z"
           id="path19145" />
      </g>
    </g>
    <g
       aria-label="XTENUAT3HR"
       id="text3578"
       style="font-size:2.82222px;font-family:'Yu Gothic';-inkscape-font-specification:'Yu Gothic';writing-mode:vertical-lr;stroke-width:0.17513334;stroke:#000000"
       transform="matrix(1.1191473,0,0,1.1191473,-0.60058419,-7.632656)">
      <g
         id="path7083">
        <path
           style="color:#000000;-inkscape-font-specification:'Yu Gothic';fill:#000000;stroke:none;stroke-width:0.175133;-inkscape-stroke:none"
           d="m 6.0893724,58.972814 -0.9880526,-0.654567 -1.0693569,0.69453 v -0.21773 l 0.7896153,-0.501605 q 0.09095,-0.0565 0.1391818,-0.08819 -0.064768,-0.03721 -0.1419378,-0.08682 L 4.0319629,57.625094 v -0.209462 l 1.0638447,0.686263 0.9935648,-0.638031 v 0.213595 l -0.7110672,0.44924 -0.1433158,0.09371 q 0.027561,0.01929 0.078548,0.04961 0.052365,0.03169 0.07028,0.04272 l 0.705555,0.451997 z"
           id="path1142" />
        <path
           style="color:#000000;-inkscape-font-specification:'Yu Gothic';fill:#000000;stroke:none;-inkscape-stroke:none"
           d="m 3.9453125,57.255859 v 0.417969 l 0.8261719,0.519531 v -0.002 c 0.00859,0.0055 0.015058,0.01032 0.023437,0.01563 -0.00793,0.005 -0.011029,0.0064 -0.019531,0.01172 l -0.8300781,0.527344 v 0.427734 l 1.15625,-0.75 1.0761719,0.712891 V 58.972656 58.716797 L 5.4296875,58.238281 c -0.00559,-0.0034 -0.021245,-0.01344 -0.03125,-0.01953 l 0.027344,-0.01758 0.7519532,-0.47461 v -0.423828 l -1.0820313,0.695313 z m 2.0566406,0.367188 v 0.0059 L 5.5097656,57.939453 Z M 4.6582031,58.5 4.1191406,58.851562 v -0.0078 z"
           id="path1144" />
      </g>
      <g
         id="path7085">
        <path
           style="color:#000000;-inkscape-font-specification:'Yu Gothic';fill:#000000;stroke:none;stroke-width:0.175133;-inkscape-stroke:none"
           d="M 6.0893724,60.769775 H 5.9281421 V 60.106939 H 4.0319629 v -0.186035 h 1.8961792 v -0.66008 h 0.1612303 z"
           id="path1148" />
        <path
           style="color:#000000;-inkscape-font-specification:'Yu Gothic';fill:#000000;stroke:none;-inkscape-stroke:none"
           d="m 5.8398437,59.173828 v 0.660156 H 3.9453125 v 0.361328 h 1.8945312 v 0.66211 h 0.3378907 v -0.08789 -1.595703 z m -1.7207031,0.833984 h 1.8828125 v 0.01172 H 4.1191406 Z"
           id="path1150" />
      </g>
      <g
         id="path7087">
        <path
           style="color:#000000;-inkscape-font-specification:'Yu Gothic';fill:#000000;stroke:none;stroke-width:0.175133;-inkscape-stroke:none"
           d="M 6.0893724,62.488187 H 5.9281421 V 61.407806 H 5.2088067 v 0.815798 H 5.0475763 v -0.815798 h -0.854383 v 1.101052 H 4.0319629 v -1.287087 h 2.0574095 z"
           id="path1154" />
        <path
           style="color:#000000;-inkscape-font-specification:'Yu Gothic';fill:#000000;stroke:none;-inkscape-stroke:none"
           d="m 3.9453125,61.134766 v 1.460937 H 4.28125 v -1.099609 h 0.6796875 v 0.814453 H 5.296875 v -0.814453 h 0.5429687 v 1.080078 h 0.3378907 v -0.08789 -1.353515 z m 0.1738281,0.173828 h 1.8828125 v 0.01172 H 5.1347656 5.1210937 4.1191406 Z"
           id="path1156" />
      </g>
      <g
         id="path7089">
        <path
           style="color:#000000;-inkscape-font-specification:'Yu Gothic';fill:#000000;stroke:none;stroke-width:0.175133;-inkscape-stroke:none"
           d="M 6.0893724,64.442244 H 4.0319629 v -0.239779 l 1.332562,-0.742762 q 0.2122177,-0.114377 0.5636172,-0.293522 v -0.02756 q -0.4395939,0.0055 -0.6173607,0.0055 H 4.0319629 V 62.96911 h 2.0574095 v 0.28801 L 4.8188222,63.965431 Q 4.5831778,64.09221 4.2414246,64.258953 v 0.02756 q 0.3651798,-0.01929 0.6407873,-0.01929 h 1.2071605 z"
           id="path1160" />
        <path
           style="color:#000000;-inkscape-font-specification:'Yu Gothic';fill:#000000;stroke:none;-inkscape-stroke:none"
           d="m 3.9453125,62.880859 v 0.351563 h 1.3652344 c 0.05914,0 0.2049913,-0.0011 0.3066406,-0.002 -0.098896,0.05145 -0.2208806,0.112438 -0.2949219,0.152343 l -1.3769531,0.767579 v 0.378906 h 2.2324219 v -0.08789 -0.261719 H 4.8828125 c -0.089246,0 -0.2077692,0.0068 -0.3105469,0.0098 0.095662,-0.04865 0.2085811,-0.104235 0.2871094,-0.146484 h 0.00195 l 1.3164063,-0.734375 v -0.427735 z m 1.3867187,0.697266 -0.5566406,0.310547 z m -1.1777343,0.65625 v 0.121094 h -0.035156 v -0.101563 z"
           id="path1162" />
      </g>
      <g
         id="path7091">
        <path
           style="color:#000000;-inkscape-font-specification:'Yu Gothic';fill:#000000;stroke:none;stroke-width:0.175133;-inkscape-stroke:none"
           d="M 6.0893724,66.531348 H 4.7099572 q -0.3789602,0 -0.5677513,-0.239779 -0.150206,-0.190169 -0.150206,-0.489203 0,-0.348643 0.1943032,-0.541568 0.1874131,-0.186035 0.5236541,-0.186035 h 1.3794152 v 0.186035 h -1.371147 q -0.3045462,0 -0.447862,0.169498 -0.1171332,0.139182 -0.1171332,0.377582 0,0.27423 0.1543402,0.414789 0.1433158,0.130914 0.410655,0.130914 h 1.371147 z"
           id="path1166" />
        <path
           style="color:#000000;-inkscape-font-specification:'Yu Gothic';fill:#000000;stroke:none;-inkscape-stroke:none"
           d="m 4.7089844,64.986328 c -0.24031,0 -0.4404598,0.07042 -0.5839844,0.212891 -0.1482505,0.147199 -0.2207031,0.35482 -0.2207031,0.603515 0,0.214018 0.055947,0.398671 0.1699218,0.542969 0.1434774,0.182227 0.3636572,0.273438 0.6347657,0.273438 h 1.46875 V 66.53125 66.265625 H 4.71875 c -0.1639324,0 -0.2760372,-0.03843 -0.3515625,-0.107422 -0.081933,-0.07462 -0.1269531,-0.183217 -0.1269531,-0.349609 0,-0.144592 0.035427,-0.248323 0.097656,-0.322266 0.075798,-0.08965 0.1940741,-0.138672 0.3808594,-0.138672 h 1.4589844 v -0.361328 z m 0,0.175781 h 1.2929687 v 0.01172 H 4.71875 c -0.2060372,0 -0.3687739,0.06754 -0.484375,0.1875 0.00831,-0.0095 0.00466,-0.03011 0.013672,-0.03906 0.1063593,-0.105578 0.2529266,-0.160157 0.4609375,-0.160157 z m -0.5664063,0.845703 c 0.025172,0.08459 0.033095,0.179285 0.089844,0.240235 -0.00493,-0.0058 -0.016745,-0.0037 -0.021484,-0.0098 v -0.002 c -0.045449,-0.05754 -0.046345,-0.15163 -0.068359,-0.228516 z m 0.5058594,0.410157 c 0.027371,0.0022 0.041507,0.02344 0.070312,0.02344 h 1.2832031 v 0.002 H 4.7089844 c -0.028544,0 -0.034257,-0.02334 -0.060547,-0.02539 z"
           id="path1168" />
      </g>
      <g
         id="path7093">
        <path
           style="color:#000000;-inkscape-font-specification:'Yu Gothic';fill:#000000;stroke:none;stroke-width:0.175133;-inkscape-stroke:none"
           d="m 6.0893724,67.880446 -2.0574095,0.679372 v -0.197059 l 0.6793724,-0.21773 V 67.369194 L 4.0319629,67.145952 v -0.186035 l 2.0574095,0.68075 z M 4.8615413,68.10231 5.3975978,67.931433 q 0.2797415,-0.09233 0.5457027,-0.163986 v -0.02618 Q 5.667693,67.66685 5.4003538,67.581412 L 4.8615413,67.411913 Z"
           id="path1172" />
        <path
           style="color:#000000;-inkscape-font-specification:'Yu Gothic';fill:#000000;stroke:none;-inkscape-stroke:none"
           d="m 3.9453125,66.837891 v 0.371093 l 0.6777344,0.222657 v 0.65039 l -0.6777344,0.216797 v 0.382813 l 2.2324219,-0.738282 v -0.0625 -0.302734 z m 0.1738281,0.24414 0.6542969,0.214844 v 0.002 z m 0.8300781,0.449219 0.4238282,0.132812 c 0.1007372,0.0322 0.2041753,0.06194 0.3066406,0.0918 -0.1027986,0.0305 -0.2029646,0.05693 -0.3085938,0.0918 l -0.421875,0.134766 z m -0.1757812,0.685547 v 0.0059 l -0.6542969,0.216797 v -0.01367 z"
           id="path1174" />
      </g>
      <g
         id="path7095">
        <path
           style="color:#000000;-inkscape-font-specification:'Yu Gothic';fill:#000000;stroke:none;stroke-width:0.175133;-inkscape-stroke:none"
           d="M 6.0893724,70.203817 H 5.9281421 V 69.540981 H 4.0319629 v -0.186035 h 1.8961792 v -0.66008 h 0.1612303 z"
           id="path1178" />
        <path
           style="color:#000000;-inkscape-font-specification:'Yu Gothic';fill:#000000;stroke:none;-inkscape-stroke:none"
           d="m 5.8398437,68.607422 v 0.660156 H 3.9453125 v 0.361328 h 1.8945312 v 0.66211 h 0.3378907 v -0.08789 -1.595703 z m -1.7207031,0.835937 h 1.8828125 v 0.0098 H 4.1191406 Z"
           id="path1180" />
      </g>
      <g
         id="path7097">
        <path
           style="color:#000000;-inkscape-font-specification:'Yu Gothic';fill:#000000;stroke:none;stroke-width:0.175133;-inkscape-stroke:none"
           d="m 5.6993879,70.541436 q 0.2011934,0.07855 0.3017901,0.242534 0.088194,0.14056 0.088194,0.327973 0,0.253559 -0.1543401,0.410655 -0.1350477,0.139182 -0.3362411,0.139182 -0.1998154,0 -0.3279729,-0.117133 Q 5.161953,71.44405 5.1219899,71.274552 h -0.017914 q -0.049609,0.220485 -0.2011934,0.334863 -0.1336696,0.100596 -0.3210826,0.100596 -0.2811196,0 -0.445106,-0.187413 -0.1419379,-0.16123 -0.1419379,-0.405143 0,-0.445106 0.3844724,-0.615982 l 0.073036,0.169498 q -0.1736327,0.07304 -0.2439126,0.191547 -0.060634,0.100597 -0.060634,0.254937 0,0.19706 0.1322915,0.308681 0.1157552,0.09784 0.296278,0.09784 0.2259981,0 0.3403752,-0.141938 0.1033528,-0.128157 0.1033528,-0.355533 v -0.158474 h 0.1612303 v 0.141937 q 0,0.241157 0.1226453,0.363802 0.1047309,0.104731 0.2797416,0.104731 0.1763887,0 0.2728513,-0.118511 0.079926,-0.09922 0.079926,-0.252181 0,-0.148828 -0.085438,-0.254937 -0.078548,-0.09784 -0.2191079,-0.141938 z"
           id="path1184" />
        <path
           style="color:#000000;-inkscape-font-specification:'Yu Gothic';fill:#000000;stroke:none;-inkscape-stroke:none"
           d="m 4.4238281,70.384766 -0.080078,0.03711 c -0.2821008,0.125378 -0.4375,0.373363 -0.4375,0.695312 0,0.179595 0.054966,0.338966 0.1640625,0.462891 0.1256535,0.143604 0.3048466,0.216797 0.5117187,0.216797 0.1406094,0 0.2682233,-0.0383 0.3730469,-0.117188 0.078178,-0.05899 0.1115352,-0.161414 0.1542969,-0.253906 0.031197,0.06385 0.050959,0.136833 0.1015625,0.183594 0.1021668,0.09338 0.2383511,0.140625 0.3886719,0.140625 0.1543211,0 0.2932717,-0.05763 0.3984375,-0.166016 0.1193992,-0.121531 0.1796875,-0.28585 0.1796875,-0.472656 0,-0.138678 -0.033454,-0.264498 -0.1015625,-0.373047 -0.077412,-0.12619 -0.1969499,-0.22122 -0.3457032,-0.279297 l -0.080078,-0.03125 -0.033203,0.08203 -0.1015625,0.255859 0.089844,0.0293 c 0.080503,0.02526 0.1373117,0.06293 0.1777344,0.113281 0.044416,0.05516 0.066406,0.116757 0.066406,0.199219 0,0.08672 -0.021054,0.148239 -0.060547,0.197265 -0.047812,0.05874 -0.107097,0.08594 -0.2050781,0.08594 -0.099206,0 -0.1661744,-0.02555 -0.21875,-0.07813 -0.061472,-0.06147 -0.095703,-0.156808 -0.095703,-0.302734 V 70.78125 H 4.9316406 v 0.246094 c 0,0.138316 -0.030968,0.233088 -0.083984,0.298828 -0.058571,0.07268 -0.1391511,0.109375 -0.2714843,0.109375 -0.1045286,0 -0.1802043,-0.02543 -0.2402344,-0.07617 -0.068783,-0.05804 -0.1015625,-0.13041 -0.1015625,-0.242188 0,-0.09143 0.018626,-0.158877 0.048828,-0.208984 v -0.002 c 0.034741,-0.05858 0.09908,-0.11053 0.203125,-0.154297 l 0.082031,-0.03516 z m 0.6796875,0.654296 c 0.00223,0.06 0.038652,0.09626 0.052734,0.148438 h -0.097656 c 0.011243,-0.0522 0.044126,-0.08925 0.044922,-0.148438 z M 4.171875,71.373047 c 0.018949,0.02943 0.015236,0.07122 0.041016,0.0957 -0.00242,-0.0027 -0.00738,-0.0012 -0.00977,-0.0039 -0.021112,-0.02398 -0.015712,-0.06482 -0.03125,-0.0918 z m 1.7109375,0.06055 c -0.0062,0.0071 -0.00303,0.02049 -0.00977,0.02734 -0.074898,0.07719 -0.1595011,0.113282 -0.2734375,0.113282 -0.1160995,0 -0.2008215,-0.03095 -0.2695313,-0.09375 -0.00357,-0.0033 -0.00437,-0.01023 -0.00781,-0.01367 0.077785,0.05091 0.1590826,0.09961 0.2617188,0.09961 0.12073,0 0.2192101,-0.05559 0.2988281,-0.132812 z m -0.9980469,0.04687 c -0.014868,0.01543 -0.017957,0.04562 -0.035156,0.05859 -0.073402,0.05524 -0.1583037,0.08398 -0.2675782,0.08398 -0.053711,0 -0.076749,-0.04018 -0.1210937,-0.05078 0.040976,0.0083 0.070822,0.03906 0.1152344,0.03906 0.1276764,0 0.2198088,-0.06441 0.3085937,-0.130859 z"
           id="path1186" />
      </g>
      <g
         id="path7099">
        <path
           style="color:#000000;-inkscape-font-specification:'Yu Gothic';fill:#000000;stroke:none;stroke-width:0.175133;-inkscape-stroke:none"
           d="M 6.0893724,73.690251 H 4.0319629 V 73.504216 H 5.036552 V 72.411433 H 4.0319629 v -0.186035 h 2.0574095 v 0.186035 h -0.89159 v 1.092783 h 0.89159 z"
           id="path1190" />
        <path
           style="color:#000000;-inkscape-font-specification:'Yu Gothic';fill:#000000;stroke:none;-inkscape-stroke:none"
           d="m 3.9453125,72.138672 v 0.359375 h 1.0039062 v 0.917969 H 3.9453125 v 0.361328 h 2.2324219 v -0.08789 -0.273437 H 5.2851562 V 72.498047 H 6.1777344 V 72.138672 Z M 4.1191406,72.3125 h 1.8828125 v 0.01172 H 5.125 5.109375 4.1191406 Z m 0,1.279297 H 5.109375 5.125 6.0019531 v 0.01172 H 4.1191406 Z"
           id="path1192" />
      </g>
      <g
         id="path7101">
        <path
           style="color:#000000;-inkscape-font-specification:'Yu Gothic';fill:#000000;stroke:none;stroke-width:0.175133;-inkscape-stroke:none"
           d="m 6.0893724,74.328283 v 0.67386 q 0,0.694531 -0.5277882,0.694531 -0.2080836,0 -0.3458873,-0.129536 -0.1254014,-0.115755 -0.1708766,-0.32246 l -1.0128574,0.502983 v -0.205327 l 0.9839186,-0.472667 q -0.00276,-0.03307 -0.00276,-0.108865 v -0.44924 H 4.0319629 V 74.328283 Z M 5.9336542,74.511562 H 5.1660875 v 0.460264 q 0,0.530545 0.3927406,0.530545 0.2011934,0 0.2907658,-0.13367 0.08406,-0.125401 0.08406,-0.380338 z"
           id="path1196" />
        <path
           style="color:#000000;-inkscape-font-specification:'Yu Gothic';fill:#000000;stroke:none;-inkscape-stroke:none"
           d="m 3.9453125,74.240234 v 0.359375 h 0.9804687 v 0.361328 c 0,0.02448 -4.26e-4,0.03623 0,0.05469 l -0.9804687,0.470703 v 0.402344 l 1.0644531,-0.529297 c 0.036904,0.101575 0.073355,0.20398 0.1464844,0.271484 0.1078955,0.101423 0.2493571,0.154297 0.40625,0.154297 0.1951344,0 0.3598639,-0.07084 0.4648437,-0.208984 0.1049799,-0.138146 0.1503907,-0.331618 0.1503907,-0.574219 v -0.761719 h -0.087891 z m 0.1738281,0.175782 h 1.8828125 v 0.0078 H 5.9335937 5.1015625 5.078125 4.1191406 Z m 1.1347656,0.183593 h 0.5917969 v 0.388672 c 0,0.160334 -0.027601,0.271228 -0.068359,0.332031 -0.042837,0.06393 -0.1040138,0.09375 -0.21875,0.09375 -0.111198,0 -0.1757624,-0.02972 -0.2246093,-0.0957 -0.048847,-0.06599 -0.080078,-0.179658 -0.080078,-0.345703 z m -0.1503906,0.47461 c 0.00701,0.07585 0.027959,0.138367 0.050781,0.199218 -0.00583,-0.01903 -0.018817,-0.02587 -0.023437,-0.04687 l -0.023437,-0.103515 z m -0.4160156,0.25 -0.5683594,0.283203 v -0.0098 z m 1.2109375,0.105468 c -0.00577,0.0091 -0.00356,0.03285 -0.00977,0.04102 -0.070949,0.09336 -0.1694479,0.138672 -0.3261719,0.138672 -0.1205516,0 -0.2112668,-0.03418 -0.2871094,-0.105469 v -0.002 c -0.014022,-0.01294 -0.016928,-0.04143 -0.029297,-0.05664 0.082062,0.0817 0.1834923,0.144532 0.3125,0.144532 0.143514,0 0.2614667,-0.06015 0.3398438,-0.160157 z"
           id="path1198" />
      </g>
    </g>
    <rect
       style="fill:#d35f5f;stroke-width:0.264583;stroke-linecap:round;stroke-linejoin:bevel;stroke-dasharray:0.264583, 0.529167"
       id="rect1120"
       width="7.9723735"
       height="40.407921"
       x="1.092106"
       y="77.976372"
       ry="2.9486861" />
    <rect
       style="fill:#d35f5f;stroke-width:0.264583;stroke-linecap:round;stroke-linejoin:bevel;stroke-dasharray:0.264583, 0.529167"
       id="rect1120-3"
       width="7.9723735"
       height="40.407921"
       x="1.0948493"
       y="1.622637"
       ry="2.9486861" />
    <rect
       style="fill:#d35f5f;stroke-width:0.264583;stroke-linecap:round;stroke-linejoin:bevel;stroke-dasharray:0.264583, 0.529167"
       id="rect1120-3-6"
       width="7.9723735"
       height="40.407921"
       x="1.1467108"
       y="15.398694"
       ry="2.9486861" />
    <path
       style="fill:none;fill-rule:evenodd;stroke:#000000;stroke-width:0.338726px;stroke-linecap:butt;stroke-linejoin:miter;stroke-opacity:1"
       d="M 5.0973002,101.67199 5.0967446,91.741582"
       id="path1302"
       inkscape:connector-type="polyline"
       inkscape:connector-curvature="0" />
    <path
       style="fill:none;fill-rule:evenodd;stroke:#000000;stroke-width:0.341966px;stroke-linecap:butt;stroke-linejoin:miter;stroke-opacity:1"
       d="M 5.1747898,48.892784 5.174234,38.767256"
       id="path1302-3"
       inkscape:connector-type="polyline"
       inkscape:connector-curvature="0" />
    <path
       id="path14505"
       style="display:inline;fill:none;fill-rule:evenodd;stroke:#000000;stroke-width:0.15;stroke-linecap:butt;stroke-linejoin:miter;stroke-miterlimit:4;stroke-dasharray:none;stroke-opacity:1"
       d="m 4.747226,125.55482 -1.23025,0.46371 m 2.13804,-0.85809 c 0,0 0.778723,0.93553 0.4401,2.08166 m -2.619867,-2.84659 c 6.252956,-0.72735 1.271977,1.15931 1.271977,1.15931 m 1.179524,-1.34645 -0.874727,3.05031 m 0.08217,-3.00028 -0.870813,2.96871 m 0.111441,-2.9247 -0.848561,2.91869" />
  </g>
  <g
     inkscape:groupmode="layer"
     id="layer2"
     inkscape:label="components"
     style="display:none">
    <circle
       style="display:inline;fill:#00ff00;fill-opacity:1;stroke:none;stroke-width:0.255"
       id="path1580-9-0-5-7-2-9-6-1"
       cx="5.0799999"
       cy="10.402634"
       r="2.4026332"
       inkscape:label="TIME_CV" />
    <circle
       style="display:inline;fill:#00ff00;fill-opacity:1;stroke:none;stroke-width:0.255"
       id="path1580-9-0-5-7-2-9-6-1-9"
       cx="5.0799999"
       cy="20.402634"
       r="2.4026332"
       inkscape:label="TIME_CV" />
    <circle
       style="display:inline;fill:#00ff00;fill-opacity:1;stroke:none;stroke-width:0.255"
       id="path1580-9-0-5-7-2-9-6-1-9-3"
       cx="5.0799999"
       cy="40.402634"
       r="2.4026332"
       inkscape:label="TIME_CV" />
    <circle
       style="display:inline;fill:#00ff00;fill-opacity:1;stroke:none;stroke-width:0.255"
       id="path1580-9-0-5-7-2-9-6-1-9-3-9"
       cx="5.0799999"
       cy="97.402634"
       r="2.4026332"
       inkscape:label="TIME_CV" />
    <circle
       style="display:inline;fill:#ff0000;fill-opacity:1;stroke:none;stroke-width:0.255"
       id="path1580-9-2-7"
       cx="5.0799999"
       cy="30.402634"
       r="2.4026332"
       inkscape:label="TIME_CV" />
    <circle
       style="display:inline;fill:#0000ff;fill-opacity:1;stroke:none;stroke-width:0.255"
       id="path1580-9-1-6"
       cx="5.0796332"
       cy="112.40263"
       r="2.4026332"
       inkscape:label="AUDIO" />
    <circle
       style="display:inline;fill:#ff0000;fill-opacity:1;stroke:none;stroke-width:0.255"
       id="path1580-9-2-7-1"
       cx="5.0799999"
       cy="87.402634"
       r="2.4026332"
       inkscape:label="TIME_CV" />
  </g>
</svg>
